<svg width="33" height="32" viewBox="0 0 33 32" fill="none" xmlns="http://www.w3.org/2000/svg">
<g opacity="0.4">
<path d="M26.8333 7C26.1411 7 25.4644 7.20527 24.8888 7.58986C24.3133 7.97444 23.8647 8.52107 23.5998 9.16061C23.3349 9.80015 23.2655 10.5039 23.4006 11.1828C23.5356 11.8618 23.869 12.4854 24.3585 12.9749C24.848 13.4644 25.4716 13.7977 26.1505 13.9327C26.8295 14.0678 27.5332 13.9985 28.1727 13.7336C28.8123 13.4687 29.3589 13.0201 29.7435 12.4445C30.1281 11.8689 30.3333 11.1922 30.3333 10.5C30.3333 9.57174 29.9646 8.6815 29.3082 8.02513C28.6518 7.36875 27.7616 7 26.8333 7ZM26.8333 12C26.5367 12 26.2467 11.912 26 11.7472C25.7533 11.5824 25.5611 11.3481 25.4475 11.074C25.334 10.7999 25.3043 10.4983 25.3622 10.2074C25.42 9.91639 25.5629 9.64912 25.7727 9.43934C25.9825 9.22956 26.2497 9.0867 26.5407 9.02882C26.8317 8.97094 27.1333 9.00065 27.4074 9.11418C27.6815 9.22771 27.9157 9.41997 28.0805 9.66665C28.2454 9.91332 28.3333 10.2033 28.3333 10.5C28.3333 10.8978 28.1753 11.2794 27.894 11.5607C27.6127 11.842 27.2312 12 26.8333 12ZM16.3333 19.125V11C16.3333 10.7348 16.228 10.4804 16.0405 10.2929C15.8529 10.1054 15.5986 10 15.3333 10C15.0681 10 14.8138 10.1054 14.6262 10.2929C14.4387 10.4804 14.3333 10.7348 14.3333 11V19.125C13.3907 19.3684 12.5692 19.9472 12.0227 20.753C11.4763 21.5588 11.2426 22.5362 11.3652 23.502C11.4879 24.4678 11.9586 25.3557 12.6891 25.9993C13.4196 26.6429 14.3598 26.998 15.3333 26.998C16.3069 26.998 17.2471 26.6429 17.9776 25.9993C18.7081 25.3557 19.1788 24.4678 19.3015 23.502C19.4241 22.5362 19.1904 21.5588 18.6439 20.753C18.0975 19.9472 17.276 19.3684 16.3333 19.125ZM15.3333 25C14.9378 25 14.5511 24.8827 14.2222 24.6629C13.8933 24.4432 13.637 24.1308 13.4856 23.7654C13.3342 23.3999 13.2946 22.9978 13.3718 22.6098C13.4489 22.2219 13.6394 21.8655 13.9191 21.5858C14.1988 21.3061 14.5552 21.1156 14.9432 21.0384C15.3311 20.9613 15.7333 21.0009 16.0987 21.1522C16.4642 21.3036 16.7765 21.56 16.9963 21.8889C17.216 22.2178 17.3333 22.6044 17.3333 23C17.3333 23.5304 17.1226 24.0391 16.7476 24.4142C16.3725 24.7893 15.8638 25 15.3333 25ZM20.3333 16.75V6C20.3333 4.67392 19.8066 3.40215 18.8689 2.46447C17.9312 1.52678 16.6594 1 15.3333 1C14.0073 1 12.7355 1.52678 11.7978 2.46447C10.8601 3.40215 10.3333 4.67392 10.3333 6V16.75C9.03949 17.7859 8.09934 19.1981 7.6428 20.7915C7.18627 22.3848 7.2359 24.0806 7.78483 25.6445C8.33377 27.2084 9.35491 28.5633 10.7071 29.5217C12.0593 30.4802 13.6759 30.995 15.3333 30.995C16.9908 30.995 18.6073 30.4802 19.9596 29.5217C21.3118 28.5633 22.3329 27.2084 22.8819 25.6445C23.4308 24.0806 23.4804 22.3848 23.0239 20.7915C22.5674 19.1981 21.6272 17.7859 20.3333 16.75ZM15.3333 29C14.0558 29.0001 12.8115 28.5924 11.7817 27.8363C10.752 27.0801 9.99041 26.0151 9.60798 24.7961C9.22555 23.5771 9.24219 22.2678 9.65549 21.059C10.0688 19.8501 10.8572 18.8047 11.9058 18.075C12.0385 17.9823 12.1468 17.8589 12.2212 17.7152C12.2957 17.5715 12.3342 17.4118 12.3333 17.25V6C12.3333 5.20435 12.6494 4.44129 13.212 3.87868C13.7746 3.31607 14.5377 3 15.3333 3C16.129 3 16.8921 3.31607 17.4547 3.87868C18.0173 4.44129 18.3333 5.20435 18.3333 6V17.25C18.3333 17.411 18.3722 17.5696 18.4466 17.7124C18.521 17.8551 18.6288 17.9778 18.7608 18.07C19.8117 18.799 20.6021 19.8446 21.0169 21.0545C21.4316 22.2643 21.4488 23.575 21.0661 24.7953C20.6835 26.0157 19.9209 27.0818 18.8896 27.8382C17.8583 28.5946 16.6123 29.0016 15.3333 29Z" fill="white"/>
</g>
</svg>
